<svg t="1591319734068" class="icon" viewBox="0 0 1024 1024" version="1.1" xmlns="http://www.w3.org/2000/svg" p-id="982" width="800" height="800"><path d="M967.17927253 482.53000777L560.71866046 81.25420393c-2.05429637-2.4402943-6.34062292-6.42022107-12.32686831-10.36852638-10.72181278-7.06246087-22.11857688-10.65747979-33.86753838-10.65747979-12.63217695 0-24.31680546 3.62773045-34.73439861 10.7545243-6.90217344 4.75083255-10.59423687 9.0208028-12.1829361 11.13943216L61.91612377 482.56272036c-6.95015119 6.83784045-10.76978947 15.9545977-10.76978947 25.64926282 0 9.66304366 3.81963934 18.77980091 10.76978947 25.61764136 12.77610915 12.6801547 31.42833415 9.05242426 49.19625151-8.44289598l27.27067358-26.96536388 377.2795743-365.4499246 2.2952731 2.24729534 400.04039099 393.34648275c12.26253533 8.0252766 23.27439158 12.29524685 32.19814986 12.29524684 6.64484149 0 12.19929241-2.31162833 16.98174642-7.0308394 6.9337949-6.83784045 10.7545243-15.92297624 10.78614576-25.61764136C977.96541829 498.51731806 974.14578002 489.39946969 967.17927253 482.53000777z" fill="#6ac3bf" p-id="983"></path><path d="M815.56152448 461.791866c-16.757126 0-30.46442836 13.51539347-30.56147287 30.11223203l0 374.34206142c0 20.44918837-16.85308044 37.07764838-37.59122221 37.07764838l-93.19242962 0L654.21639978 694.66117435c0-51.2996157-42.21447885-93.03214218-94.10726759-93.0321422l-91.13813324 0c-51.89278767 0-94.10726759 41.73252648-94.10726761 93.0321422L374.86373134 903.32380783 281.67130173 903.32380783c-20.73814283 0-37.62393374-16.62846003-37.62393374-37.07764838L244.04736799 492.00005248c-0.03162146-16.66117155-13.70730236-30.20818648-30.49713988-30.20818648-16.77348123 0-30.48078359 13.54701493-30.52876133 30.17547495l0 378.77231911c0 51.2996157 42.21447885 93.03214218 94.10726759 93.03214218l158.7608982 0L435.88963257 699.18738648c0-20.41647684 16.88579197-37.0133154 37.62393373-37.01331541l82.06935269 0c20.75449806 0 37.60757851 16.59683855 37.60757851 37.01331541l0 264.58550582 158.77725449 0c51.87752252 0 94.12362282-41.73252648 94.12362282-93.03214218L846.09137589 491.93571949C845.96161985 475.33888093 832.28593788 461.791866 815.56152448 461.791866z" fill="#6ac3bf" p-id="984"></path></svg>