<svg t="1591319486236" class="icon" viewBox="0 0 1024 1024" version="1.1" xmlns="http://www.w3.org/2000/svg" p-id="921" width="800" height="800"><path d="M948.90666667 220.72888889l-327.68 0c-20.13411555 0-36.40888889-16.31118222-36.40888889-36.40888889s16.27477333-36.40888889 36.40888889-36.40888889l327.68 0c20.13411555 0 36.40888889 16.31118222 36.40888888 36.40888889S969.04078222 220.72888889 948.90666667 220.72888889z" fill="#6ac3bf" p-id="922"></path><path d="M948.90666667 402.77333333l-327.68 0c-20.13411555 0-36.40888889-16.31118222-36.40888889-36.40888888s16.27477333-36.40888889 36.40888889-36.4088889l327.68 0c20.13411555 0 36.40888889 16.31118222 36.40888888 36.4088889S969.04078222 402.77333333 948.90666667 402.77333333z" fill="#6ac3bf" p-id="923"></path><path d="M948.90666667 694.04444445l-327.68 0c-20.13411555 0-36.40888889-16.27477333-36.40888889-36.4088889s16.27477333-36.40888889 36.40888889-36.40888888l327.68 0c20.13411555 0 36.40888889 16.27477333 36.40888888 36.40888888S969.04078222 694.04444445 948.90666667 694.04444445z" fill="#6ac3bf" p-id="924"></path><path d="M948.90666667 876.08888889l-327.68 0c-20.13411555 0-36.40888889-16.27477333-36.40888889-36.40888889s16.27477333-36.40888889 36.40888889-36.40888889l327.68 0c20.13411555 0 36.40888889 16.27477333 36.40888888 36.40888889S969.04078222 876.08888889 948.90666667 876.08888889z" fill="#6ac3bf" p-id="925"></path><path d="M366.36444445 475.59111111L147.91111111 475.59111111c-60.22030222 0-109.22666667-49.00636445-109.22666666-109.22666666L38.68444445 147.91111111c0-60.22030222 49.00636445-109.22666667 109.22666666-109.22666666l218.45333334 0c60.22030222 0 109.22666667 49.00636445 109.22666666 109.22666666l0 218.45333334C475.59111111 426.58474667 426.58474667 475.59111111 366.36444445 475.59111111zM147.91111111 111.50222222C127.84981333 111.50222222 111.50222222 127.84981333 111.50222222 147.91111111l0 218.45333334c0 20.06129778 16.34759111 36.40888889 36.40888889 36.40888888l218.45333334 0c20.06129778 0 36.40888889-16.34759111 36.40888888-36.40888888L402.77333333 147.91111111c0-20.06129778-16.34759111-36.40888889-36.40888888-36.40888889L147.91111111 111.50222222z" fill="#6ac3bf" p-id="926"></path><path d="M366.36444445 985.31555555L147.91111111 985.31555555c-60.22030222 0-109.22666667-49.00636445-109.22666666-109.22666666l0-218.45333334c0-60.22030222 49.00636445-109.22666667 109.22666666-109.22666666l218.45333334 0c60.22030222 0 109.22666667 49.00636445 109.22666666 109.22666666l0 218.45333334C475.59111111 936.30919111 426.58474667 985.31555555 366.36444445 985.31555555zM147.91111111 621.22666667c-20.06129778 0-36.40888889 16.31118222-36.40888889 36.40888888l0 218.45333334c0 20.09770667 16.34759111 36.40888889 36.40888889 36.40888889l218.45333334 0c20.06129778 0 36.40888889-16.31118222 36.40888888-36.40888889l0-218.45333334c0-20.09770667-16.34759111-36.40888889-36.40888888-36.40888888L147.91111111 621.22666667z" fill="#6ac3bf" p-id="927"></path></svg>