<svg t="1591319683864" class="icon" viewBox="0 0 1024 1024" version="1.1" xmlns="http://www.w3.org/2000/svg" p-id="982" width="800" height="800"><path d="M512 1021.72444445c-314.06307555 0-473.31555555-70.59683555-473.31555555-209.89724445 0-99.43267555 164.13127111-164.56817778 327.68-186.59555555l0-20.6802489c-98.19477333-68.66716445-146.03605333-188.416-146.03605334-365.21756444C220.32839111 68.10282667 327.55256889-34.13333333 507.15761778-34.13333333l9.68476444 0c179.64145778 0 286.86563555 102.23616 286.86563556 273.46716444 0 66.48263111 0 263.74599111-144.87096889 365.47242667l-0.47331556 20.53461333c163.29386667 22.13660445 326.95182222 87.19928889 326.95182222 186.48632889C985.31555555 951.12760889 826.06307555 1021.72444445 512 1021.72444445zM507.15761778 38.68444445c-97.64864 0-214.01144889 34.80689778-214.01144889 200.64938666 0 159.39811555 42.01585778 262.21681778 128.41415111 314.31793778C432.48298667 560.20536889 439.18222222 572.03825778 439.18222222 584.81777778l0 72.81777777c0 18.71416889-14.16305778 34.36999111-32.80440889 36.22684445C229.10293333 711.55712 111.50222222 776.61980445 111.50222222 811.8272 111.50222222 925.13166222 329.30019555 948.90666667 512 948.90666667c182.73621333 0 400.49777778-23.77500445 400.49777778-137.07946667 0-35.24380445-117.60071111-100.27008-294.912-117.9648-18.93262222-1.89326222-33.16849778-18.0224-32.768-37.02784l1.60199111-72.81777778c0.29127111-12.48824889 6.91768889-23.95704889 17.58549333-30.40142222 86.54392889-52.17393778 126.84856889-152.04352 126.84856889-314.31793778C730.89024 73.49134222 614.45461333 38.68444445 516.84238222 38.68444445L507.15761778 38.68444445z" fill="#6ac3bf" p-id="983"></path></svg>